HIERARCHY
ROOT hip
{
  OFFSET 0 0 0
  CHANNELS 6 Xposition Yposition Zposition Zrotation Yrotation Xrotation
  JOINT abdomen
  {
    OFFSET 0 20.6881 -0.73152
    CHANNELS 3 Zrotation Xrotation Yrotation
    JOINT chest
    {
      OFFSET 0 11.7043 -0.48768
      CHANNELS 3 Zrotation Xrotation Yrotation
      JOINT neck
      {
        OFFSET 0 22.1894 -2.19456
        CHANNELS 3 Zrotation Xrotation Yrotation
        JOINT head
        {
          OFFSET -0.24384 7.07133 1.2192
          CHANNELS 3 Zrotation Xrotation Yrotation
          JOINT leftEye
          {
            OFFSET 4.14528 8.04674 8.04672
            CHANNELS 3 Zrotation Xrotation Yrotation
            End Site
            {
              OFFSET 1 0 0
            }
          }
          JOINT rightEye
          {
            OFFSET -3.6576 8.04674 8.04672
            CHANNELS 3 Zrotation Xrotation Yrotation
            End Site
            {
              OFFSET 1 0 0
            }
          }
        }
      }
      JOINT rCollar
      {
        OFFSET -2.68224 19.2634 -4.8768
        CHANNELS 3 Zrotation Xrotation Yrotation
        JOINT rShldr
        {
          OFFSET -8.77824 -1.95073 1.46304
          CHANNELS 3 Zrotation Xrotation Yrotation
          JOINT rForeArm
          {
            OFFSET -28.1742 -1.7115 0.48768
            CHANNELS 3 Zrotation Xrotation Yrotation
            JOINT rHand
            {
              OFFSET -22.5879 0.773209 7.07136
              CHANNELS 3 Zrotation Xrotation Yrotation
              JOINT rThumb1
              {
                OFFSET -1.2192 -0.487915 3.41376
                CHANNELS 3 Zrotation Xrotation Yrotation
                JOINT rThumb2
                {
                  OFFSET -3.37035 -0.52449 3.41376
                  CHANNELS 3 Zrotation Xrotation Yrotation
                  End Site
                  {
                    OFFSET -1.78271 -1.18214 1.43049
                  }
                }
              }
              JOINT rIndex1
              {
                OFFSET -7.75947 0.938293 5.60832
                CHANNELS 3 Zrotation Xrotation Yrotation
                JOINT rIndex2
                {
                  OFFSET -2.54057 -0.884171 1.56538
                  CHANNELS 3 Zrotation Xrotation Yrotation
                  End Site
                  {
                    OFFSET -1.62519 -0.234802 1.16502
                  }
                }
              }
              JOINT rMid1
              {
                OFFSET -8.24714 1.18213 3.41376
                CHANNELS 3 Zrotation Xrotation Yrotation
                JOINT rMid2
                {
                  OFFSET -3.10165 -0.590103 1.0647
                  CHANNELS 3 Zrotation Xrotation Yrotation
                  End Site
                  {
                    OFFSET -2.48547 -0.328903 0.83742
                  }
                }
              }
              JOINT rRing1
              {
                OFFSET -8.82822 0.546677 1.51678
                CHANNELS 3 Zrotation Xrotation Yrotation
                JOINT rRing2
                {
                  OFFSET -2.60934 -0.819778 -0.0198488
                  CHANNELS 3 Zrotation Xrotation Yrotation
                  End Site
                  {
                    OFFSET -2.33842 -0.294052 0.168128
                  }
                }
              }
              JOINT rPinky1
              {
                OFFSET -8.27202 -0.0477905 -0.4584
                CHANNELS 3 Zrotation Xrotation Yrotation
                JOINT rPinky2
                {
                  OFFSET -1.82734 -0.647385 -0.700984
                  CHANNELS 3 Zrotation Xrotation Yrotation
                  End Site
                  {
                    OFFSET -1.69225 -0.51767 -0.607171
                  }
                }
              }
            }
          }
        }
      }
      JOINT lCollar
      {
        OFFSET 2.68224 19.2634 -4.8768
        CHANNELS 3 Zrotation Xrotation Yrotation
        JOINT lShldr
        {
          OFFSET 8.77824 -1.95073 1.46304
          CHANNELS 3 Zrotation Xrotation Yrotation
          JOINT lForeArm
          {
            OFFSET 28.1742 -1.7115 0.48768
            CHANNELS 3 Zrotation Xrotation Yrotation
            JOINT lHand
            {
              OFFSET 22.5879 0.773209 7.07136
              CHANNELS 3 Zrotation Xrotation Yrotation
              JOINT lThumb1
              {
                OFFSET 1.2192 -0.487915 3.41376
                CHANNELS 3 Zrotation Xrotation Yrotation
                JOINT lThumb2
                {
                  OFFSET 3.37035 -0.52449 3.41376
                  CHANNELS 3 Zrotation Xrotation Yrotation
                  End Site
                  {
                    OFFSET 1.78271 -1.18214 1.43049
                  }
                }
              }
              JOINT lIndex1
              {
                OFFSET 7.75947 0.938293 5.60832
                CHANNELS 3 Zrotation Xrotation Yrotation
                JOINT lIndex2
                {
                  OFFSET 2.54057 -0.884171 1.56538
                  CHANNELS 3 Zrotation Xrotation Yrotation
                  End Site
                  {
                    OFFSET 1.62519 -0.234802 1.16502
                  }
                }
              }
              JOINT lMid1
              {
                OFFSET 8.24714 1.18213 3.41376
                CHANNELS 3 Zrotation Xrotation Yrotation
                JOINT lMid2
                {
                  OFFSET 3.10165 -0.590103 1.0647
                  CHANNELS 3 Zrotation Xrotation Yrotation
                  End Site
                  {
                    OFFSET 2.48547 -0.328903 0.83742
                  }
                }
              }
              JOINT lRing1
              {
                OFFSET 8.82822 0.546677 1.51678
                CHANNELS 3 Zrotation Xrotation Yrotation
                JOINT lRing2
                {
                  OFFSET 2.60934 -0.819778 -0.0198488
                  CHANNELS 3 Zrotation Xrotation Yrotation
                  End Site
                  {
                    OFFSET 2.33842 -0.294052 0.168128
                  }
                }
              }
              JOINT lPinky1
              {
                OFFSET 8.27202 -0.0477905 -0.4584
                CHANNELS 3 Zrotation Xrotation Yrotation
                JOINT lPinky2
                {
                  OFFSET 1.82734 -0.647385 -0.700984
                  CHANNELS 3 Zrotation Xrotation Yrotation
                  End Site
                  {
                    OFFSET 1.69225 -0.51767 -0.607171
                  }
                }
              }
            }
          }
        }
      }
    }
  }
  JOINT rButtock
  {
    OFFSET -8.77824 4.35084 1.2192
    CHANNELS 3 Zrotation Xrotation Yrotation
    JOINT rThigh
    {
      OFFSET 0 -1.70687 -2.19456
      CHANNELS 3 Zrotation Xrotation Yrotation
      JOINT rShin
      {
        OFFSET 0 -36.8199 0.73152
        CHANNELS 3 Zrotation Xrotation Yrotation
        JOINT rFoot
        {
          OFFSET 0.73152 -45.1104 -5.12064
          CHANNELS 3 Zrotation Xrotation Yrotation
          End Site
          {
            OFFSET -1.1221 -3.69964 12.103
          }
        }
      }
    }
  }
  JOINT lButtock
  {
    OFFSET 8.77824 4.35084 1.2192
    CHANNELS 3 Zrotation Xrotation Yrotation
    JOINT lThigh
    {
      OFFSET 0 -1.70687 -2.19456
      CHANNELS 3 Zrotation Xrotation Yrotation
      JOINT lShin
      {
        OFFSET 0 -36.8199 0.73152
        CHANNELS 3 Zrotation Xrotation Yrotation
        JOINT lFoot
        {
          OFFSET -0.73152 -45.1104 -5.12064
          CHANNELS 3 Zrotation Xrotation Yrotation
          End Site
          {
            OFFSET 1.1221 -3.69964 12.103
          }
        }
      }
    }
  }
}
MOTION
Frames:	4
Frame Time:	0.03333
-0.2044999971985817 55.37499785423279 -1.8610000610351562 -7.027500101642903 -40.215798663198235 6.173699988408274 -4.091489926060031 15.981100742624706 15.46900047941383 -2.820359918452335 -10.828799622418009 3.8721097994479217 -3.8784200404673674 13.728400193969659 4.108570094740117 9.562760026732677 -30.594801028507447 11.034799835332887 -0.0 0.0 0.0 -0.0 0.0 0.0 -1.2355400107224509e-13 7.948669702834893e-15 -2.511639907191052e-13 43.12279889094195 59.46820314087492 31.302398381237012 -28.405600748566005 -36.900701462735434 78.52699907633841 -14.745599776492147 -68.90249755460341 -21.362499214198326 1.239550022189408e-09 -1.701500065720665e-08 1.6243099715697545e-09 2.0470099626066092e-09 -2.885970116589025e-08 2.831710052507925e-09 1.2395399835636946e-09 -1.701500065720665e-08 1.624300032336375e-09 7.730910121524428 5.474879855648998 0.41731399283890674 1.2395399835636946e-09 -1.701500065720665e-08 1.6243099715697545e-09 2.90554006136521 0.9651829962377875 0.10290200252939893 1.2395399835636946e-09 -1.701500065720665e-08 1.6243099715697545e-09 10.278599710243157 0.7318009818271524 0.025912300303053633 1.239530044330315e-09 -1.701500065720665e-08 1.624320010195468e-09 2.221669932038622 -0.7334870246959406 -0.20891999872313852 -1.2374199963330037e-13 7.953330235088224e-15 -2.5131400131664556e-13 -59.536600655223424 18.815099908519322 -19.830499736195513 28.414099211440796 -34.6190016384118 -74.71619748176735 0.24298899564337534 13.900000159129767 -1.9931700087806654 -4.659580195131033e-10 -3.5648201539832297e-09 4.399949926205826e-09 -7.697870156577694e-10 -6.337589956196281e-09 7.618669673569564e-09 -4.659590134364413e-10 -3.564809817180515e-09 4.399949926205826e-09 -7.730910121524428 5.474879855648998 -0.41731399283890674 -4.659569758935984e-10 -3.564809817180515e-09 4.399949926205826e-09 -2.90554006136521 0.9651829962377875 -0.10290200252939893 -4.65964976976469e-10 -3.564809817180515e-09 4.399949926205826e-09 -10.278599710243157 0.7318009818271524 -0.025912300303053633 -4.659590134364413e-10 -3.5648201539832297e-09 4.399939986972446e-09 -2.221669932038622 -0.7334870246959406 0.20891999872313852 -2.0321699793705798e-16 0.0 -3.882510030490358e-19 -5.717150080603935 -36.41999957913911 -11.247199935500065 -6.361350044344267 83.0017018884239 8.260100371812321 -10.116100118378444 -16.605499561074346 -29.748899175274293 2.0321699793705798e-16 0.0 3.882510030490358e-19 36.72269990277573 -54.47019855533975 17.659899768911313 0.48075700535736354 43.13320126904788 0.016825600726211143 -2.0103601008177066 16.096500203746658 4.749990171488252
-0.4041000036522746 55.827999114990234 -3.839000128209591 -7.189900228877827 -36.87990012161816 6.542700104544568 -3.5035999628279892 16.205299994583083 15.242099887638714 -2.7817100123733485 -10.797500280546426 3.86130017131273 -4.2908499144411865 13.774000244415957 3.1146200492655285 9.60909005364652 -31.743898394092053 9.185630277936777 -0.0 0.0 0.0 -0.0 0.0 0.0 4.987380096903687e-14 1.7930499558568365e-13 -3.2082299623759615e-13 39.42579849322705 58.07940028636872 36.17049959894771 -28.30680035467448 -38.32250096112197 80.92539951282089 -13.337799604583202 -67.48739847179266 -19.84210081250078 1.2735400137162057e-09 -1.318959964601779e-08 1.3193000454110946e-09 2.1192099453685042e-09 -2.2539399909803736e-08 2.314550072239949e-09 1.2735400137162057e-09 -1.318959964601779e-08 1.3193000454110946e-09 7.730910121524428 5.474879855648998 0.41731399283890674 1.2735299750904924e-09 -1.318959964601779e-08 1.3193200232701875e-09 2.90554006136521 0.9651829962377875 0.10290200252939893 1.2735400137162057e-09 -1.318959964601779e-08 1.3193099846444742e-09 10.278599710243157 0.7318009818271524 0.025912300303053633 1.2735299750904924e-09 -1.318959964601779e-08 1.3193200232701875e-09 2.221669932038622 -0.7334870246959406 -0.20891999872313852 4.98418005685991e-14 1.7930199877093176e-13 -3.2097800557067406e-13 -61.296897498686626 21.966699455724946 -18.469900440319584 28.4086999469019 -34.497598441009416 -74.5206013545057 0.2054269972929117 12.775699795326894 -1.826239972022142 4.458059753551836e-10 -6.602400155989587e-09 2.8475999049118493e-09 7.91249995002288e-10 -1.15129996658151e-08 4.924139926243174e-09 4.458059753551836e-10 -6.602389819186872e-09 2.8476100429298965e-09 -7.730910121524428 5.474879855648998 -0.41731399283890674 4.458080128980264e-10 -6.602389819186872e-09 2.8476100429298965e-09 -2.90554006136521 0.9651829962377875 -0.10290200252939893 4.457990178918179e-10 -6.602389819186872e-09 2.8475999049118493e-09 -10.278599710243157 0.7318009818271524 -0.025912300303053633 4.458049814318456e-10 -6.602389819186872e-09 2.8475899656784695e-09 -2.221669932038622 -0.7334870246959406 0.20891999872313852 -2.0321699793705798e-16 0.0 -3.882510030490358e-19 -2.940250015510157 -36.641499198828036 -10.42610020669052 -4.913790060616206 81.24150066760907 6.760060202709645 -10.840800264789722 -16.816200651685485 -31.05760098628917 2.0321699793705798e-16 0.0 3.882510030490358e-19 33.6052000750014 -55.485700835853486 12.730600056237298 0.3770060049780467 38.63090107762097 0.2442599977983795 -1.7952400912569815 12.910000097429561 5.4981101827898575
-0.5879000062122941 56.167298555374146 -5.908000096678734 -7.070800085886198 -33.17930021421066 6.830800045056644 -2.996879967692379 16.46639934353245 14.79400020449815 -2.6779600792110894 -10.860799912453166 3.7873702037365122 -4.6714301894284125 13.923600170259453 2.0892099390304493 9.604859605229343 -33.02609907112728 7.249210176535632 -0.0 0.0 0.0 -0.0 0.0 0.0 2.0908400405540087e-13 2.95796996628655e-13 -2.383929979232e-13 33.79540035281874 56.757601587620336 43.240500125814194 -28.012000852360266 -40.35129937104754 84.55360283012082 -11.109699689771247 -64.84199790435503 -17.411600194466544 1.2793800090730418e-09 -4.860619875991661e-09 6.894040123583046e-10 2.1610000484669236e-09 -8.565249659954657e-09 1.2388899577006704e-09 1.279390047698755e-09 -4.86062981522504e-09 6.8939799912211e-10 7.730910121524428 5.474879855648998 0.41731399283890674 1.2793800090730418e-09 -4.860650091261134e-09 6.894270216835784e-10 2.90554006136521 0.9651829962377875 0.10290200252939893 1.279390047698755e-09 -4.86062981522504e-09 6.894120134411752e-10 10.278599710243157 0.7318009818271524 0.025912300303053633 1.2793800090730418e-09 -4.86062981522504e-09 6.894140012878512e-10 2.221669932038622 -0.7334870246959406 -0.20891999872313852 2.0917301066681757e-13 2.957869991575799e-13 -2.385910060881837e-13 -62.98109920460671 25.277399721909553 -17.566899913172417 28.398099493310042 -34.24960110243542 -74.10880241925646 0.147612994465471 10.886999664335688 -1.5489399479700308 1.2013100144695045e-09 -8.537679816837062e-09 3.390150004721114e-10 2.0765499605647043e-09 -1.4751299702936599e-08 5.754759970104456e-10 1.2013100144695045e-09 -8.537670275173017e-09 3.39022007631644e-10 -7.730910121524428 5.474879855648998 -0.41731399283890674 1.201319953702884e-09 -8.537670275173017e-09 3.390150004721114e-10 -2.90554006136521 0.9651829962377875 -0.10290200252939893 1.2013100144695045e-09 -8.537670275173017e-09 3.390119938540141e-10 -10.278599710243157 0.7318009818271524 -0.025912300303053633 1.2013100144695045e-09 -8.537670275173017e-09 3.38995991688273e-10 -2.221669932038622 -0.7334870246959406 0.20891999872313852 -2.0321699793705798e-16 0.0 -3.882510030490358e-19 -0.6375899948101981 -37.12739885638274 -9.719139769101059 -4.034939801713733 79.65010074194196 5.825099939775518 -11.484000032703468 -17.308800724815974 -31.78690126510645 2.0321699793705798e-16 0.0 3.882510030490358e-19 30.58429961265855 -56.95089935622629 9.65845012323091 0.3254569931668002 35.27100125129746 0.4279650058388805 -1.4146900185124915 9.231370347261059 7.0312699391779265
-0.7544000050984323 56.395602226257324 -8.031000010669231 -6.581399956381859 -29.17910088904973 6.894999981273355 -2.8771998989515346 16.8107996795993 14.122299764725232 -2.5655900204294513 -10.987100355490456 3.629460072107226 -4.95177999966664 14.324800359464124 1.0451900179063185 9.605389798663666 -34.45629970219293 5.251069924473313 -0.0 0.0 0.0 -0.0 0.0 0.0 1.1356400383468802e-13 1.0386799776414812e-13 2.6504200931093207e-13 26.00069967954098 54.926800116449684 52.89730161213419 -27.451599198886353 -42.917801008287775 89.06210141821953 -7.957020118903115 -59.67980240136191 -13.864199722595146 2.368890047757421e-09 -5.3587799183389104e-11 1.3121599486320434e-10 4.063170135080363e-09 -4.551099923294685e-10 3.339739952385759e-10 2.3688999869908e-09 -5.3598198106312485e-11 1.3121199432176905e-10 7.730910121524428 5.474879855648998 0.41731399283890674 2.368890047757421e-09 -5.360959716459468e-11 1.3122900283488986e-10 2.90554006136521 0.9651829962377875 0.10290200252939893 2.3688999869908e-09 -5.359799932164489e-11 1.3122500229345457e-10 10.278599710243157 0.7318009818271524 0.025912300303053633 2.3688799097393736e-09 -5.35914021554892e-11 1.312310031056075e-10 2.221669932038622 -0.7334870246959406 -0.20891999872313852 1.1354599868047015e-13 1.0386200413464432e-13 2.647589983761031e-13 -64.25249793746956 28.72060053535053 -17.26719975012872 28.374699265213575 -33.89010092566097 -73.54479954854266 0.0750089973928412 8.08654014236042 -1.14333001788247 2.1376801221500993e-10 -4.9739100410373854e-09 -1.2077400027197519e-09 3.638089896433768e-10 -8.54624027976222e-09 -2.0941700347153447e-09 2.1376699344358852e-10 -4.9739100410373854e-09 -1.2077299640940386e-09 -7.730910121524428 5.474879855648998 -0.41731399283890674 2.137690061383479e-10 -4.9739100410373854e-09 -1.2077400027197519e-09 -2.90554006136521 0.9651829962377875 -0.10290200252939893 2.1376001113213937e-10 -4.9739100410373854e-09 -1.2077400027197519e-09 -10.278599710243157 0.7318009818271524 -0.025912300303053633 2.137690061383479e-10 -4.973900101804006e-09 -1.207759980578845e-09 -2.221669932038622 -0.7334870246959406 0.20891999872313852 -2.0321699793705798e-16 0.0 -3.882510030490358e-19 0.8723459978219164 -37.88749987326219 -9.029459710111729 -3.542250082350387 78.41499763432854 5.249449888979551 -11.97229964797779 -18.103600810226386 -31.73260126120485 2.0321699793705798e-16 0.0 3.882510030490358e-19 28.038399533502368 -58.90049830763097 10.667199907976446 0.32135799921071984 33.959099496656435 0.5536970223907528 -0.8397090060900683 6.405709988569384 9.790060184574239
